<svg preserveAspectRatio="none" overflow="visible" style="display: block;" width="32" height="32" viewBox="0 0 32 32" fill="none" xmlns="http://www.w3.org/2000/svg">
<g id="overflow_horizontal/Light">
<path id="vector" d="M8 13.3333C6.53333 13.3333 5.33333 14.5333 5.33333 16C5.33333 17.4667 6.53333 18.6667 8 18.6667C9.46667 18.6667 10.6667 17.4667 10.6667 16C10.6667 14.5333 9.46667 13.3333 8 13.3333ZM24 13.3333C22.5333 13.3333 21.3333 14.5333 21.3333 16C21.3333 17.4667 22.5333 18.6667 24 18.6667C25.4667 18.6667 26.6667 17.4667 26.6667 16C26.6667 14.5333 25.4667 13.3333 24 13.3333ZM16 13.3333C14.5333 13.3333 13.3333 14.5333 13.3333 16C13.3333 17.4667 14.5333 18.6667 16 18.6667C17.4667 18.6667 18.6667 17.4667 18.6667 16C18.6667 14.5333 17.4667 13.3333 16 13.3333Z" fill="white"/>
</g>
</svg>
